<svg width="18" height="18" viewBox="0 0 18 18" fill="none" xmlns="http://www.w3.org/2000/svg">
<path d="M11.2559 3.00684C12.395 3.1983 13.5059 3.53964 14.5557 4.02148C16.3648 6.66672 17.2645 9.65349 16.9326 13.0996C15.7105 14.0026 14.3411 14.6885 12.8828 15.1289C12.5542 14.6887 12.2645 14.2195 12.0156 13.7314C12.4909 13.5528 12.9468 13.3355 13.3838 13.0771C13.269 13.0006 13.1572 12.9145 13.0488 12.8252C10.4835 14.0312 7.51629 14.0312 4.9541 12.8252C4.84559 12.9081 4.73304 12.9942 4.61816 13.0771C5.05532 13.3324 5.51209 13.553 5.98438 13.7285C5.7355 14.2167 5.44481 14.6857 5.11621 15.126C3.658 14.6857 2.28949 13.9958 1.06738 13.0928C0.786693 10.1223 1.35099 7.11026 3.4375 4.01855C4.4904 3.53677 5.6012 3.19466 6.74023 3C6.89658 3.27757 7.04065 3.56488 7.16504 3.8584C8.38075 3.67653 9.61561 3.67654 10.8281 3.8584C10.9557 3.56487 11.0966 3.27758 11.2529 3L11.2559 3.00684ZM6.33984 8.06445C5.52958 8.06466 4.90149 8.78237 4.90137 9.66602C4.90137 10.5499 5.55559 11.2646 6.34375 11.2646C7.14772 11.2644 7.76945 10.5466 7.78223 9.66602C7.79483 8.78541 7.15027 8.06445 6.33984 8.06445ZM11.6592 8.06445C10.8489 8.06468 10.2208 8.78239 10.2207 9.66602C10.2207 10.5498 10.868 11.2644 11.6592 11.2646C12.4633 11.2646 13.0859 10.5467 13.0986 9.66602C13.1113 8.78541 12.4696 8.06445 11.6592 8.06445Z" fill="black"/>
</svg>
